<?xml version="1.0" encoding="UTF-8"?>
<svg id="_Слой_2" data-name="Слой 2" xmlns="http://www.w3.org/2000/svg" viewBox="0 0 146.42 146.42">
  <defs>
    <style>
      .cls-1 {
        fill: #fff;
      }

      .cls-2 {
        fill: #ec1c24;
      }
    </style>
  </defs>
  <g id="Layer_1" data-name="Layer 1">
    <circle class="cls-2" cx="73.21" cy="73.21" r="73.21"/>
    <path class="cls-1" d="M107.95,81.03c-.22-.81-.79-2.92-5.87-4.65-.98-.68-1.57-1.81-1.56-3.08v-.27c0-1.22,.58-2.36,1.56-3.04,5.08-1.74,5.64-3.86,5.86-4.66,1.04-3.88-1.39-8.67-2.47-10.54-1.11-1.92-4.13-6.49-8.1-7.53-.81-.21-2.91-.76-6.94,2.72-1.1,.51-2.44,.44-3.55-.2l-.1-.06c-1.11-.63-1.81-1.68-1.92-2.86,1.03-5.24-.53-6.79-1.14-7.38-4.22-4.18-16.79-4.18-21.01,0-.6,.59-2.16,2.14-1.14,7.37-.11,1.16-.82,2.24-1.91,2.85l-.17,.09c-1.12,.64-2.45,.72-3.55,.21-4.03-3.47-6.14-2.91-6.95-2.7-3.97,1.05-6.97,5.62-8.08,7.54-1.08,1.88-3.5,6.67-2.45,10.55,.22,.81,.79,2.92,5.87,4.65,.99,.68,1.57,1.81,1.56,3.08v.27c0,1.22-.58,2.36-1.55,3.04-5.08,1.74-5.64,3.86-5.86,4.66-1.04,3.88,1.38,8.67,2.47,10.54,1.11,1.92,4.12,6.49,8.1,7.53,.81,.21,2.91,.76,6.94-2.72,1.1-.51,2.45-.43,3.6,.23,0,0,.05,.03,.05,.03,1.1,.62,1.81,1.7,1.92,2.86-1.02,5.24,.54,6.78,1.14,7.37,2.11,2.09,6.31,3.14,10.51,3.14s8.4-1.05,10.51-3.14c.6-.59,2.16-2.14,1.14-7.37,.11-1.16,.82-2.24,1.92-2.86l.15-.09c1.12-.64,2.45-.72,3.55-.21,4.04,3.47,6.14,2.91,6.95,2.7,3.97-1.05,6.97-5.62,8.08-7.54,1.09-1.88,3.5-6.67,2.45-10.55Zm-22.84-7.81c0,6.48-5.34,11.74-11.9,11.74s-11.9-5.26-11.9-11.74,5.34-11.74,11.9-11.74,11.9,5.26,11.9,11.74Z"/>
  </g>
</svg>