<?xml version="1.0" encoding="UTF-8"?>
<svg id="_Слой_2" data-name="Слой 2" xmlns="http://www.w3.org/2000/svg" viewBox="0 0 96.75 73.99">
  <defs>
    <style>
      .cls-1 {
        fill: #fff;
      }

      .cls-2 {
        fill: #8ac75a;
      }

      .cls-3, .cls-4 {
        fill: #0a0203;
      }

      .cls-4 {
        stroke: #0a0203;
        stroke-width: .37px;
      }

      .cls-5, .cls-6 {
        fill-rule: evenodd;
      }

      .cls-5, .cls-7 {
        fill: #6dcff6;
      }

      .cls-6 {
        fill: #fff200;
      }

      .cls-8 {
        fill: #ed1c24;
      }
    </style>
  </defs>
  <g id="Layer_1" data-name="Layer 1">
    <g>
      <g>
        <path class="cls-4" d="M4.32,.19H92.43c2.28,0,4.14,1.85,4.14,4.14V69.66c0,2.28-1.85,4.14-4.14,4.14H4.33c-2.28,0-4.14-1.85-4.14-4.14V4.32C.19,2.04,2.04,.19,4.32,.19Z"/>
        <path class="cls-8" d="M4.32,1.1H92.43c1.78,0,3.23,1.44,3.23,3.22V69.66c0,1.78-1.45,3.22-3.23,3.22H4.32c-1.78,0-3.22-1.44-3.22-3.22V4.32c0-1.78,1.44-3.22,3.22-3.22h0Z"/>
      </g>
      <polygon class="cls-3" points="75.19 61.27 69.88 61.27 66.49 58.04 66.49 55.5 65.73 56.27 64.19 56.27 64.19 61.27 59.88 61.27 57.34 61.27 50.19 61.27 49.58 61.27 43.34 61.27 43.34 58.66 40.65 61.27 35.42 61.27 28.65 61.27 28.35 61.27 24.96 61.27 21.57 61.27 18.19 61.27 17.5 61.27 15.57 61.27 10.65 61.27 10.65 42.66 17.57 42.66 18.04 42.66 24.19 42.66 24.96 42.66 32.42 42.66 32.8 45.04 35.34 42.66 40.65 42.66 41.26 43.2 41.26 42.66 49.58 42.66 52.34 42.66 57.34 42.66 59.88 42.66 65.73 42.66 67.8 44.66 69.88 42.66 75.19 42.66 76.65 44.04 76.65 42.66 85.19 42.66 88.42 45.58 88.42 51.2 87.81 51.74 88.73 52.5 88.73 58.04 85.34 61.27 76.65 61.27 76.65 59.89 75.19 61.27 75.19 61.27"/>
      <g>
        <g>
          <path class="cls-3" d="M31.28,27.27c-1.46,0-2.62,1.15-2.62,2.62s1.16,2.62,2.62,2.62,2.62-1.16,2.62-2.62-1.16-2.62-2.62-2.62h0Zm0-7.23c5.38,0,9.84,4.38,9.84,9.85s-4.46,9.84-9.84,9.84-9.85-4.46-9.85-9.84,4.38-9.85,9.85-9.85h0Z"/>
          <path class="cls-6" d="M22.67,29.88c0-4.77,3.85-8.61,8.62-8.61s8.62,3.85,8.62,8.61-3.85,8.61-8.62,8.61-8.62-3.84-8.62-8.61Zm4.77,0c0-2.15,1.7-3.85,3.85-3.85s3.84,1.69,3.84,3.85-1.76,3.85-3.84,3.85-3.85-1.69-3.85-3.85Z"/>
        </g>
        <g>
          <path class="cls-3" d="M29.88,11.29c.23-1.41,1.61-2.46,3.12-2.3,1.59,.17,2.8,1.57,2.63,3.16-.18,1.67-1.65,2.79-3.24,2.63-.34-.04-.66-.16-.99-.28l-10.28,7.56,7.23,22.28-9.74,3.21-6.3-19.05-2.65,1.92-3.76-9.37,3.45-1.42-1.16-3.51,9.99-3.19,.9,2.72,10.8-4.37h0Z"/>
          <path class="cls-7" d="M31.2,11.68c.09-.84,.83-1.44,1.67-1.35,.93,.1,1.52,.84,1.43,1.68-.1,.92-.84,1.52-1.76,1.42-.42-.04-.82-.26-1.04-.62l-12.01,8.73,7.18,21.94-7.2,2.37-6.5-19.57-2.66,2.01-2.63-6.46,3.37-1.43-1.16-3.43,7.45-2.35,.88,2.89,13.01-5.32c-.07-.1-.05-.26-.03-.51h0Z"/>
        </g>
        <g>
          <path class="cls-3" d="M31.87,11.72v2.71h-1.2c-.18,0-.36,.09-.47,.24-.07,.1-.11,.21-.11,.33,0,.07,.01,.13,.03,.19l1.09,3.12c.04,.12,.12,.21,.22,.28v.35c-.95,.68-1.51,1.65-1.51,2.72,0,1.8,1.46,3.27,3.27,3.27s3.27-1.43,3.27-3.27l-.02-.23c-.03-.27-.06-.64,.16-.95,.13-.19,.14-.43,.02-.63-.12-.2-.34-.3-.57-.27-.91,.12-1.32,.83-1.62,1.35-.3,.51-.43,.67-.66,.67-.78,0-.78-.17-.78-.61,0-.39,.49-.89,.92-1.08,.21-.09,.35-.29,.35-.52v-.89c.06-.06,.12-.11,.14-.19l1.01-3.12c.02-.06,.03-.12,.03-.18,0-.12-.04-.24-.11-.34-.11-.15-.28-.23-.46-.23h-1.2v-2.71c0-.54-.39-.95-.91-.95s-.9,.41-.9,.95Z"/>
          <path class="cls-1" d="M30.67,15.01h1.77v-3.28c0-.51,.68-.51,.68,0v3.28h1.78l-1.02,3.12h-.17v1.26c-.59,.25-1.26,.93-1.26,1.6s.17,1.18,1.35,1.18,1.1-1.85,2.36-2.02c-.42,.59-.26,1.26-.26,1.51,0,1.52-1.18,2.7-2.69,2.7-1.43,0-2.7-1.18-2.7-2.7,0-1.09,.68-1.94,1.52-2.44v-1.1h-.26l-1.1-3.12Z"/>
        </g>
        <g>
          <path class="cls-3" d="M49.61,28.73c1.38-.15,2.46-1.38,2.38-2.84-.15-1.38-1.38-2.46-2.84-2.31-1.46,.08-2.46,1.38-2.39,2.77,.15,1.46,1.39,2.54,2.85,2.38h0Zm.23,2.46c-2.84,.23-5.31-1.85-5.54-4.62-.23-2.77,1.84-5.23,4.61-5.54,2.85-.23,5.31,1.85,5.54,4.69,.23,2.77-1.85,5.23-4.62,5.46h0Zm-4.23-15.15v1c5.92-2.38,12.93,1.46,13.54,8.23,.61,7.23-6.23,12.23-12.62,10.31l.38,9.31-7.84,.54-1.39-29,7.93-.39h0Zm-2.39,2.62l-2.92,.15,1.08,23.92,3-.15-.54-11.15c2.08,1.23,3.61,2.23,6.15,2.08,9.69-.85,8.39-15.54-1.23-14.69-2.3,.23-3.61,1.31-5.38,2.54l-.16-2.69h0Z"/>
          <path class="cls-2" d="M45.53,26.51c.23,2.08,2.08,3.69,4.15,3.46,2.16-.15,3.7-2.08,3.54-4.15-.23-2.16-2.08-3.69-4.15-3.46-2.16,.16-3.7,2-3.54,4.16h0Zm-6.54-8.92l5.39-.23,.07,1.69c1.23-.77,2.62-1.31,4.16-1.46,4.77-.39,8.92,3.08,9.31,7.85,.46,4.69-3.08,8.85-7.77,9.31-1.84,.16-3.54-.31-5-1.07l.46,10.08-5.38,.31-1.23-26.46h0Z"/>
        </g>
        <g>
          <path class="cls-3" d="M64.14,27.27c-1.46,0-2.62,1.15-2.62,2.62s1.16,2.62,2.62,2.62,2.62-1.16,2.62-2.62-1.15-2.62-2.62-2.62h0Zm0-7.23c5.38,0,9.85,4.38,9.85,9.85s-4.46,9.84-9.85,9.84-9.85-4.46-9.85-9.84,4.38-9.85,9.85-9.85h0Z"/>
          <path class="cls-6" d="M55.53,29.88c0-4.77,3.85-8.61,8.62-8.61s8.62,3.85,8.62,8.61-3.85,8.61-8.62,8.61-8.62-3.84-8.62-8.61Zm4.77,0c0-2.15,1.7-3.85,3.85-3.85s3.85,1.69,3.85,3.85-1.77,3.85-3.85,3.85-3.85-1.69-3.85-3.85Z"/>
        </g>
        <g>
          <path class="cls-3" d="M82.17,25.44l-1.5,12.38-4.36-1.32,2.9-5.59,2.97-5.47Zm7.17-5.06l-2.07,18.43,2.79,.85-2.41,7.8-21.9-6.69,2.39-7.81,2.63,.8,7.67-16.65,10.91,3.26Zm-2.57,1.7l-7.05-2.11-7.68,16.66-2.34-.71-1,3.28,17.37,5.31,1.02-3.28-2.39-.73,2.07-18.42Z"/>
          <path class="cls-5" d="M79.66,36.28l.87-5.64-2.52,5.14,1.65,.5Zm-.59-17.74l8.98,2.69-2.08,18.42,2.6,.79-1.72,5.54-19.64-6,1.7-5.55,2.49,.76,7.67-16.65Z"/>
        </g>
      </g>
      <g>
        <path class="cls-3" d="M18.62,43.93s-.45,2.87-.77,4.89c-.37-2.02-.88-4.89-.88-4.89h-5.04v16.06h4.29v-2.9c.16,.94,.48,2.9,.48,2.9h2.2s.36-2.07,.56-3.22v3.22h4.22v-16.06h-5.06Z"/>
        <polygon class="cls-1" points="23.12 59.43 20.04 59.43 20.04 50.19 18.42 59.43 17.19 59.43 15.65 50.19 15.65 59.43 12.5 59.43 12.5 44.51 16.5 44.51 17.73 51.35 18.04 51.35 19.11 44.51 23.12 44.51 23.12 59.43 23.12 59.43"/>
        <path class="cls-3" d="M25.31,43.93l-2.24,16.06h4.42s.18-2.08,.23-2.77h1.44c.09,.67,.38,2.77,.38,2.77h4.4l-2.65-16.06h-5.98Zm3.13,6.8c.13,1.25,.22,2.06,.27,2.51h-.57c.05-.45,.15-1.25,.3-2.51Z"/>
        <path class="cls-1" d="M33.27,59.43h-3.23l-.38-2.77h-2.47l-.23,2.77h-3.23l2.08-14.92h5l2.46,14.92h0Zm-3.92-5.62l-.69-6.46h-.38l-.77,6.46h1.84Z"/>
        <path class="cls-3" d="M35.8,43.93l-2.57,2.48v11.1l2.57,2.48h4.3l2.65-2.48v-5.05h-4.3v3.54h-.94v-8.09h.94v2.85h4.3v-4.36l-2.65-2.47h-4.3Z"/>
        <polygon class="cls-1" points="42.19 57.27 39.88 59.43 36.03 59.43 33.81 57.27 33.81 46.66 36.03 44.51 39.88 44.51 42.19 46.66 42.19 50.19 39.03 50.19 39.03 47.35 36.96 47.35 36.96 56.58 39.03 56.58 39.03 53.04 42.19 53.04 42.19 57.27 42.19 57.27"/>
        <path class="cls-3" d="M42.54,43.93v3.99h2.15v12.08h4.22v-12.08h2.15v-3.99h-8.53Z"/>
        <polygon class="cls-1" points="50.5 47.35 48.34 47.35 48.34 59.43 45.27 59.43 45.27 47.35 43.12 47.35 43.12 44.51 50.5 44.51 50.5 47.35 50.5 47.35"/>
        <path class="cls-3" d="M50.85,43.93v16.06h7.76v-3.99h-3.46v-2.48h2.92v-3.99h-2.92v-1.62h3.46v-3.99h-7.76Z"/>
        <polygon class="cls-1" points="58.04 59.43 51.42 59.43 51.42 44.51 58.04 44.51 58.04 47.35 54.57 47.35 54.57 50.12 57.49 50.12 57.49 52.97 54.57 52.97 54.57 56.58 58.04 56.58 58.04 59.43 58.04 59.43"/>
        <path class="cls-3" d="M58.62,43.93v16.06h4.22v-5h2.35l2.57-2.48v-6.1l-2.57-2.48h-6.57Zm4.93,3.99v3.09h-.71v-3.09h.71Z"/>
        <path class="cls-1" d="M67.19,52.27l-2.23,2.16h-2.7v5h-3.08v-14.92h5.77l2.23,2.15v5.61h0Zm-3.07-.69v-4.23h-1.85v4.23h1.85Z"/>
        <path class="cls-3" d="M70.34,43.93l-2.57,2.48v11.1l2.57,2.48h4.3l2.65-2.48v-11.11l-2.65-2.47h-4.3Zm2.66,3.99v8.09h-.93v-8.09h.93Z"/>
        <path class="cls-1" d="M76.73,57.27l-2.31,2.16h-3.85l-2.23-2.16v-10.61l2.23-2.15h3.85l2.31,2.15v10.61h0Zm-3.15-.69v-9.23h-2.08v9.23h2.08Z"/>
        <path class="cls-3" d="M77.92,43.93v16.06h6.87l2.65-2.48v-4.45s-1.05-.85-1.61-1.29c.48-.43,1.31-1.18,1.31-1.18v-4.42l-2.43-2.25h-6.79Zm5.23,3.99v2.01h-1.01v-2.01h1.01Zm0,6v2.09h-1.01v-2.09h1.01Z"/>
        <path class="cls-1" d="M86.88,57.27l-2.3,2.16h-6.08v-14.92h6l2.08,1.92v3.92l-1.61,1.46,1.92,1.54v3.92h0Zm-3.15-6.77v-3.15h-2.15v3.15h2.15Zm0,6.08v-3.23h-2.15v3.23h2.15Z"/>
      </g>
    </g>
  </g>
</svg>